<svg xmlns="http://www.w3.org/2000/svg" viewBox="0 0 12 12" style="enable-background:new 0 0 12 12"
	xml:space="preserve">
	<path
		d="M11.5 9.4 8.1 6 6 3.9 2.6.5C1.2-.9-.9 1.2.5 2.6l.3.4C.3 3.9 0 4.9 0 6c0 3.3 2.7 6 6 6 1.1 0 2.1-.3 3-.8l.4.4c1.4 1.3 3.5-.8 2.1-2.2zM6 9.7C3.9 9.7 2.3 8.1 2.3 6c0-.5.1-.9.3-1.4L3.9 6 6 8.1l1.4 1.4c-.5.1-.9.2-1.4.2z"
		style="fill-rule:evenodd;clip-rule:evenodd;fill:#fff" />
	<path d="M6 0c-.5 0-1 .1-1.4.2l2.1 2.1c1.5.3 2.7 1.5 3 3l2.1 2.1c.1-.4.2-.9.2-1.4 0-3.3-2.7-6-6-6z"
		style="fill:#fff" />
</svg>